<svg width="341" height="98" viewBox="0 0 341 98" fill="none" xmlns="http://www.w3.org/2000/svg">
<circle cx="37.9918" cy="50.9647" r="37.9918" fill="#FB3B3B"/>
<path d="M48.3664 19.0435H53.3023L61.8842 39.998H62.2001L70.7819 19.0435H75.7178V46H71.8481V26.4934H71.598L63.6479 45.9605H60.4363L52.4863 26.4802H52.2362V46H48.3664V19.0435ZM90.0286 46.408C88.0367 46.408 86.3212 45.9825 84.8821 45.1313C83.4518 44.2713 82.3462 43.0648 81.5652 41.5116C80.793 39.9497 80.4069 38.1201 80.4069 36.0229C80.4069 33.952 80.793 32.1269 81.5652 30.5474C82.3462 28.9679 83.4343 27.735 84.8295 26.8488C86.2335 25.9625 87.8744 25.5194 89.7522 25.5194C90.8929 25.5194 91.9986 25.708 93.0691 26.0853C94.1397 26.4627 95.1005 27.055 95.9517 27.8623C96.8028 28.6696 97.4741 29.7182 97.9655 31.0081C98.4569 32.2892 98.7026 33.8468 98.7026 35.6807V37.0759H82.6314V34.1275H94.846C94.846 33.0921 94.6354 32.1751 94.2142 31.3766C93.793 30.5693 93.2007 29.9331 92.4373 29.4681C91.6827 29.003 90.7964 28.7705 89.7785 28.7705C88.6729 28.7705 87.7076 29.0425 86.8828 29.5865C86.0667 30.1218 85.4349 30.8238 84.9874 31.6925C84.5487 32.5525 84.3293 33.487 84.3293 34.4961V36.7995C84.3293 38.1508 84.5662 39.3004 85.0401 40.248C85.5227 41.1957 86.194 41.9197 87.0539 42.4198C87.9139 42.9112 88.9186 43.1569 90.0681 43.1569C90.814 43.1569 91.494 43.0516 92.1083 42.841C92.7225 42.6217 93.2534 42.297 93.7009 41.867C94.1484 41.437 94.4907 40.9062 94.7276 40.2744L98.4525 40.9457C98.1542 42.0425 97.6189 43.0034 96.8467 43.8282C96.0833 44.6443 95.1224 45.2805 93.9642 45.7368C92.8146 46.1843 91.5028 46.408 90.0286 46.408ZM110.638 46.3949C109.005 46.3949 107.549 45.9781 106.268 45.1444C104.995 44.3021 103.995 43.1043 103.267 41.5511C102.547 39.9892 102.187 38.1157 102.187 35.9308C102.187 33.7458 102.552 31.8768 103.28 30.3236C104.017 28.7705 105.026 27.5815 106.307 26.7566C107.588 25.9318 109.041 25.5194 110.664 25.5194C111.919 25.5194 112.928 25.73 113.691 26.1512C114.463 26.5636 115.06 27.0462 115.481 27.599C115.911 28.1518 116.245 28.6388 116.482 29.06H116.719V19.0435H120.654V46H116.811V42.8542H116.482C116.245 43.2842 115.903 43.7756 115.455 44.3284C115.016 44.8812 114.411 45.3638 113.639 45.7762C112.866 46.1887 111.866 46.3949 110.638 46.3949ZM111.506 43.0385C112.638 43.0385 113.595 42.7401 114.376 42.1434C115.165 41.538 115.762 40.7 116.166 39.6294C116.578 38.5589 116.784 37.3128 116.784 35.8913C116.784 34.4873 116.583 33.2588 116.179 32.2058C115.775 31.1529 115.183 30.3324 114.402 29.7445C113.621 29.1566 112.656 28.8626 111.506 28.8626C110.322 28.8626 109.335 29.1697 108.545 29.784C107.755 30.3982 107.158 31.2362 106.755 32.298C106.36 33.3597 106.162 34.5575 106.162 35.8913C106.162 37.2426 106.364 38.458 106.768 39.5373C107.171 40.6166 107.768 41.4721 108.558 42.1039C109.356 42.727 110.339 43.0385 111.506 43.0385ZM126.271 46V25.7826H130.207V46H126.271ZM128.259 22.6631C127.574 22.6631 126.986 22.435 126.495 21.9787C126.012 21.5136 125.771 20.9608 125.771 20.3202C125.771 19.6709 126.012 19.1181 126.495 18.6618C126.986 18.1967 127.574 17.9642 128.259 17.9642C128.943 17.9642 129.527 18.1967 130.009 18.6618C130.501 19.1181 130.746 19.6709 130.746 20.3202C130.746 20.9608 130.501 21.5136 130.009 21.9787C129.527 22.435 128.943 22.6631 128.259 22.6631ZM141.385 46.4475C140.104 46.4475 138.945 46.2106 137.91 45.7368C136.875 45.2541 136.054 44.5565 135.449 43.6439C134.852 42.7313 134.554 41.6125 134.554 40.2875C134.554 39.1468 134.773 38.2079 135.212 37.4708C135.65 36.7337 136.243 36.1502 136.989 35.7202C137.735 35.2902 138.568 34.9656 139.489 34.7462C140.411 34.5268 141.35 34.3601 142.306 34.246C143.517 34.1056 144.5 33.9915 145.255 33.9038C146.009 33.8073 146.558 33.6537 146.9 33.4431C147.242 33.2325 147.413 32.8903 147.413 32.4164V32.3243C147.413 31.1748 147.089 30.2841 146.439 29.6523C145.799 29.0206 144.842 28.7047 143.57 28.7047C142.245 28.7047 141.201 28.9986 140.437 29.5865C139.683 30.1657 139.16 30.8106 138.871 31.5214L135.172 30.679C135.611 29.4505 136.252 28.459 137.094 27.7043C137.945 26.9409 138.924 26.3881 140.029 26.0459C141.135 25.6949 142.297 25.5194 143.517 25.5194C144.324 25.5194 145.18 25.6159 146.084 25.8089C146.996 25.9932 147.848 26.3354 148.637 26.8356C149.436 27.3358 150.09 28.0509 150.599 28.9811C151.107 29.9024 151.362 31.1002 151.362 32.5744V46H147.519V43.2359H147.361C147.106 43.7448 146.724 44.245 146.215 44.7364C145.707 45.2278 145.053 45.6358 144.254 45.9605C143.456 46.2852 142.499 46.4475 141.385 46.4475ZM142.24 43.2886C143.329 43.2886 144.259 43.0736 145.031 42.6436C145.812 42.2136 146.404 41.652 146.808 40.9588C147.22 40.2568 147.426 39.5066 147.426 38.7081V36.1019C147.286 36.2423 147.014 36.3739 146.61 36.4968C146.215 36.6108 145.764 36.7118 145.255 36.7995C144.746 36.8785 144.25 36.9531 143.767 37.0233C143.285 37.0847 142.881 37.1373 142.556 37.1812C141.793 37.2777 141.095 37.4401 140.463 37.6682C139.84 37.8964 139.34 38.2254 138.963 38.6554C138.594 39.0766 138.41 39.6382 138.41 40.3402C138.41 41.3142 138.77 42.0513 139.489 42.5515C140.209 43.0429 141.126 43.2886 142.24 43.2886ZM156.92 19.0435H161.856L170.437 39.998H170.753L179.335 19.0435H184.271V46H180.401V26.4934H180.151L172.201 45.9605H168.99L161.04 26.4802H160.789V46H156.92V19.0435ZM198.384 46.408C196.489 46.408 194.835 45.9737 193.422 45.105C192.01 44.2362 190.913 43.0209 190.132 41.459C189.351 39.8971 188.96 38.0719 188.96 35.9834C188.96 33.8862 189.351 32.0523 190.132 30.4816C190.913 28.9109 192.01 27.6912 193.422 26.8224C194.835 25.9537 196.489 25.5194 198.384 25.5194C200.28 25.5194 201.934 25.9537 203.347 26.8224C204.759 27.6912 205.856 28.9109 206.637 30.4816C207.418 32.0523 207.809 33.8862 207.809 35.9834C207.809 38.0719 207.418 39.8971 206.637 41.459C205.856 43.0209 204.759 44.2362 203.347 45.105C201.934 45.9737 200.28 46.408 198.384 46.408ZM198.398 43.1043C199.626 43.1043 200.644 42.7796 201.451 42.1303C202.259 41.4809 202.855 40.6166 203.241 39.5373C203.636 38.458 203.834 37.269 203.834 35.9703C203.834 34.6804 203.636 33.4958 203.241 32.4164C202.855 31.3284 202.259 30.4552 201.451 29.7971C200.644 29.139 199.626 28.81 198.398 28.81C197.16 28.81 196.134 29.139 195.318 29.7971C194.51 30.4552 193.909 31.3284 193.514 32.4164C193.128 33.4958 192.935 34.6804 192.935 35.9703C192.935 37.269 193.128 38.458 193.514 39.5373C193.909 40.6166 194.51 41.4809 195.318 42.1303C196.134 42.7796 197.16 43.1043 198.398 43.1043ZM212.202 46V25.7826H216.006V28.9942H216.216C216.585 27.9061 217.234 27.0506 218.164 26.4276C219.103 25.7958 220.165 25.4799 221.35 25.4799C221.595 25.4799 221.885 25.4886 222.218 25.5062C222.56 25.5237 222.828 25.5457 223.021 25.572V29.3364C222.863 29.2926 222.582 29.2443 222.179 29.1917C221.775 29.1302 221.371 29.0995 220.968 29.0995C220.038 29.0995 219.208 29.297 218.48 29.6918C217.761 30.0779 217.19 30.6176 216.769 31.3108C216.348 31.9952 216.137 32.7762 216.137 33.6537V46H212.202ZM226.427 53.5815V25.7826H230.27V29.06H230.599C230.828 28.6388 231.157 28.1518 231.587 27.599C232.017 27.0462 232.613 26.5636 233.377 26.1512C234.14 25.73 235.149 25.5194 236.404 25.5194C238.036 25.5194 239.493 25.9318 240.774 26.7566C242.055 27.5815 243.06 28.7705 243.788 30.3236C244.525 31.8768 244.894 33.7458 244.894 35.9308C244.894 38.1157 244.53 39.9892 243.801 41.5511C243.073 43.1043 242.073 44.3021 240.8 45.1444C239.528 45.9781 238.076 46.3949 236.443 46.3949C235.215 46.3949 234.21 46.1887 233.429 45.7762C232.657 45.3638 232.052 44.8812 231.613 44.3284C231.174 43.7756 230.836 43.2842 230.599 42.8542H230.362V53.5815H226.427ZM230.283 35.8913C230.283 37.3128 230.49 38.5589 230.902 39.6294C231.315 40.7 231.911 41.538 232.692 42.1434C233.473 42.7401 234.43 43.0385 235.562 43.0385C236.737 43.0385 237.72 42.727 238.51 42.1039C239.3 41.4721 239.896 40.6166 240.3 39.5373C240.712 38.458 240.919 37.2426 240.919 35.8913C240.919 34.5575 240.717 33.3597 240.313 32.298C239.918 31.2362 239.322 30.3982 238.523 29.784C237.733 29.1697 236.746 28.8626 235.562 28.8626C234.421 28.8626 233.456 29.1566 232.666 29.7445C231.885 30.3324 231.293 31.1529 230.889 32.2058C230.485 33.2588 230.283 34.4873 230.283 35.8913ZM253.239 33.9959V46H249.303V19.0435H253.186V29.0732H253.436C253.91 27.9851 254.634 27.1208 255.608 26.4802C256.582 25.8396 257.854 25.5194 259.425 25.5194C260.811 25.5194 262.022 25.8045 263.058 26.3749C264.102 26.9453 264.909 27.7965 265.48 28.9284C266.059 30.0516 266.348 31.4556 266.348 33.1404V46H262.413V33.6142C262.413 32.1313 262.031 30.9817 261.268 30.1657C260.504 29.3408 259.442 28.9284 258.082 28.9284C257.152 28.9284 256.319 29.1258 255.582 29.5207C254.853 29.9156 254.278 30.4947 253.857 31.2582C253.445 32.0128 253.239 32.9254 253.239 33.9959ZM280.116 46.408C278.221 46.408 276.567 45.9737 275.154 45.105C273.741 44.2362 272.644 43.0209 271.863 41.459C271.082 39.8971 270.692 38.0719 270.692 35.9834C270.692 33.8862 271.082 32.0523 271.863 30.4816C272.644 28.9109 273.741 27.6912 275.154 26.8224C276.567 25.9537 278.221 25.5194 280.116 25.5194C282.012 25.5194 283.666 25.9537 285.078 26.8224C286.491 27.6912 287.588 28.9109 288.369 30.4816C289.15 32.0523 289.54 33.8862 289.54 35.9834C289.54 38.0719 289.15 39.8971 288.369 41.459C287.588 43.0209 286.491 44.2362 285.078 45.105C283.666 45.9737 282.012 46.408 280.116 46.408ZM280.129 43.1043C281.358 43.1043 282.376 42.7796 283.183 42.1303C283.99 41.4809 284.587 40.6166 284.973 39.5373C285.368 38.458 285.565 37.269 285.565 35.9703C285.565 34.6804 285.368 33.4958 284.973 32.4164C284.587 31.3284 283.99 30.4552 283.183 29.7971C282.376 29.139 281.358 28.81 280.129 28.81C278.892 28.81 277.865 29.139 277.049 29.7971C276.242 30.4552 275.641 31.3284 275.246 32.4164C274.86 33.4958 274.667 34.6804 274.667 35.9703C274.667 37.269 274.86 38.458 275.246 39.5373C275.641 40.6166 276.242 41.4809 277.049 42.1303C277.865 42.7796 278.892 43.1043 280.129 43.1043ZM309.083 30.7185L305.516 31.3503C305.367 30.894 305.13 30.4596 304.805 30.0472C304.49 29.6348 304.06 29.297 303.516 29.0337C302.972 28.7705 302.291 28.6388 301.475 28.6388C300.361 28.6388 299.431 28.8889 298.685 29.3891C297.939 29.8805 297.566 30.5167 297.566 31.2976C297.566 31.9733 297.816 32.5174 298.316 32.9298C298.817 33.3422 299.624 33.68 300.738 33.9433L303.95 34.6804C305.81 35.1103 307.197 35.7728 308.109 36.6679C309.022 37.5629 309.478 38.7256 309.478 40.1559C309.478 41.3668 309.127 42.4462 308.425 43.3939C307.732 44.3328 306.762 45.0699 305.516 45.6051C304.279 46.1404 302.844 46.408 301.212 46.408C298.948 46.408 297.101 45.9254 295.671 44.9602C294.24 43.9862 293.363 42.6041 293.038 40.814L296.842 40.2349C297.079 41.2264 297.566 41.9767 298.303 42.4856C299.04 42.9858 300.001 43.2359 301.186 43.2359C302.476 43.2359 303.507 42.9683 304.279 42.433C305.051 41.889 305.437 41.2264 305.437 40.4455C305.437 39.8137 305.2 39.2828 304.727 38.8528C304.261 38.4229 303.546 38.0982 302.581 37.8788L299.159 37.1286C297.272 36.6986 295.877 36.0142 294.973 35.0752C294.078 34.1363 293.631 32.9473 293.631 31.5082C293.631 30.3148 293.964 29.2706 294.631 28.3756C295.298 27.4806 296.219 26.7829 297.395 26.2828C298.571 25.7738 299.918 25.5194 301.436 25.5194C303.621 25.5194 305.341 25.9932 306.596 26.9409C307.85 27.8798 308.68 29.139 309.083 30.7185ZM313.805 46V25.7826H317.741V46H313.805ZM315.793 22.6631C315.108 22.6631 314.52 22.435 314.029 21.9787C313.546 21.5136 313.305 20.9608 313.305 20.3202C313.305 19.6709 313.546 19.1181 314.029 18.6618C314.52 18.1967 315.108 17.9642 315.793 17.9642C316.477 17.9642 317.061 18.1967 317.543 18.6618C318.035 19.1181 318.28 19.6709 318.28 20.3202C318.28 20.9608 318.035 21.5136 317.543 21.9787C317.061 22.435 316.477 22.6631 315.793 22.6631ZM338.185 30.7185L334.618 31.3503C334.469 30.894 334.232 30.4596 333.907 30.0472C333.592 29.6348 333.162 29.297 332.618 29.0337C332.074 28.7705 331.393 28.6388 330.577 28.6388C329.463 28.6388 328.533 28.8889 327.787 29.3891C327.041 29.8805 326.668 30.5167 326.668 31.2976C326.668 31.9733 326.918 32.5174 327.418 32.9298C327.919 33.3422 328.726 33.68 329.84 33.9433L333.052 34.6804C334.912 35.1103 336.299 35.7728 337.211 36.6679C338.124 37.5629 338.58 38.7256 338.58 40.1559C338.58 41.3668 338.229 42.4462 337.527 43.3939C336.834 44.3328 335.864 45.0699 334.618 45.6051C333.381 46.1404 331.946 46.408 330.314 46.408C328.05 46.408 326.203 45.9254 324.773 44.9602C323.342 43.9862 322.465 42.6041 322.14 40.814L325.944 40.2349C326.181 41.2264 326.668 41.9767 327.405 42.4856C328.142 42.9858 329.103 43.2359 330.288 43.2359C331.578 43.2359 332.609 42.9683 333.381 42.433C334.153 41.889 334.539 41.2264 334.539 40.4455C334.539 39.8137 334.302 39.2828 333.828 38.8528C333.363 38.4229 332.648 38.0982 331.683 37.8788L328.261 37.1286C326.374 36.6986 324.979 36.0142 324.075 35.0752C323.18 34.1363 322.733 32.9473 322.733 31.5082C322.733 30.3148 323.066 29.2706 323.733 28.3756C324.4 27.4806 325.321 26.7829 326.497 26.2828C327.673 25.7738 329.02 25.5194 330.538 25.5194C332.723 25.5194 334.443 25.9932 335.698 26.9409C336.952 27.8798 337.782 29.139 338.185 30.7185Z" fill="white"/>
<path d="M55.0789 79.4321H47.2211L51.4095 52.8934H58.8225C66.0132 52.8934 70.3869 57.7119 70.3869 64.3095C70.3869 73.7982 63.8263 79.4321 55.0789 79.4321ZM58.4519 55.2285H53.5963L50.1493 77.06H55.3755C62.492 77.06 67.7552 72.4639 67.7552 64.3095C67.7552 58.9351 64.3823 55.2285 58.4519 55.2285ZM77.3641 56.5258C76.4375 56.5258 75.7703 55.8587 75.7703 54.9691C75.7703 53.8201 76.7711 52.7822 77.9201 52.7822C78.8096 52.7822 79.4768 53.4494 79.4768 54.339C79.4768 55.488 78.5131 56.5258 77.3641 56.5258ZM72.5456 79.4321L75.3626 61.4926H77.8089L74.9549 79.4321H72.5456ZM80.3658 71.426C80.3658 65.6068 84.5912 61.0107 89.9657 61.0107C92.9309 61.0107 95.1919 62.5304 95.9332 65.0508L96.7857 61.4926H98.9725L96.2297 78.9132C95.3031 84.6213 92.1525 87.6606 87.0375 87.6606C82.4044 87.6606 79.2909 84.9178 79.1427 80.7665H81.589C81.7372 83.6205 83.8499 85.4367 87.0746 85.4367C90.7441 85.4367 93.1162 83.2128 93.7463 79.1356L94.4506 74.9472C92.8938 77.4306 90.4105 78.8762 87.5194 78.8762C83.294 78.8762 80.3658 75.8368 80.3658 71.426ZM82.8492 71.3148C82.8492 74.5766 84.8136 76.6893 87.853 76.6893C91.9672 76.6893 95.1178 73.1681 95.1178 68.4608C95.1178 65.1991 93.1904 63.1976 90.0398 63.1976C85.9997 63.1976 82.8492 66.7929 82.8492 71.3148ZM106.285 56.5258C105.358 56.5258 104.691 55.8587 104.691 54.9691C104.691 53.8201 105.692 52.7822 106.841 52.7822C107.731 52.7822 108.398 53.4494 108.398 54.339C108.398 55.488 107.434 56.5258 106.285 56.5258ZM101.467 79.4321L104.284 61.4926H106.73L103.876 79.4321H101.467ZM113.142 79.4321H110.695L113.216 63.5682H109.732L110.065 61.4926H113.549L114.439 55.8216H116.848L115.959 61.4926H119.48L119.146 63.5682H115.625L113.142 79.4321ZM124.751 79.8769C121.563 79.8769 119.487 77.9866 119.487 75.0955C119.487 71.5372 122.23 69.2392 127.012 68.8315L132.868 68.3867L132.942 67.8678C133.535 64.7914 132.052 63.0864 128.865 63.0864C125.825 63.0864 124.083 64.4207 123.676 66.9782H121.341C121.897 63.1976 124.751 61.0107 129.013 61.0107C133.572 61.0107 136.055 63.6423 135.388 67.7937L133.572 79.4321H131.459L131.682 76.2816C130.31 78.5055 127.679 79.8769 124.751 79.8769ZM125.492 77.8383C129.161 77.8383 131.83 75.2808 132.46 71.2407L132.608 70.24L127.271 70.6847C123.824 70.9813 121.934 72.538 121.934 74.9843C121.934 76.7264 123.305 77.8383 125.492 77.8383ZM141.233 79.4321H138.824L143.087 52.4116H145.496L141.233 79.4321Z" fill="white"/>
</svg>
